# xmcd CD database file
#
# Track frame offsets:
#	150
#	17884
#	48642
#	74454
#	98871
#	112094
#	136502
#	156408
#	174884
#	200034
#	229731
#
# Disc length: 3328 seconds
#
# Revision: 0
# Processed by: cddbd v1.5.2PL0 Copyright (c) Steve Scherf et al.
# Submitted via: CDex 1.51
#
DISCID=980cfe0b
DTITLE=Ключ - Имя рек
DYEAR=1900
DGENRE=Blues
TTITLE0=Весна
TTITLE1=Корабль
TTITLE2=Нагуаль
TTITLE3=Алмаз
TTITLE4=Апрельский блюз
TTITLE5=Стрела дождя
TTITLE6=Странный блюз
TTITLE7=Голубые огни
TTITLE8=Трамвай
TTITLE9=Гость
TTITLE10=Беспощадный свет
EXTD=
EXTT0=
EXTT1=
EXTT2=
EXTT3=
EXTT4=
EXTT5=
EXTT6=
EXTT7=
EXTT8=
EXTT9=
EXTT10=
PLAYORDER=
